<?xml version="1.0" encoding="UTF-8"?>
<svg width="63px" height="63px" viewBox="0 0 63 63" version="1.1" xmlns="http://www.w3.org/2000/svg" xmlns:xlink="http://www.w3.org/1999/xlink">
    <!-- Generator: Sketch 51.3 (57544) - http://www.bohemiancoding.com/sketch -->
    <title>ICON/bewi_icon</title>
    <desc>Created with Sketch.</desc>
    <defs></defs>
    <g id="Symbols" stroke="none" stroke-width="1" fill="none" fill-rule="evenodd">
        <g id="ICON/bewi_icon" fill="#4900AC" fill-rule="nonzero">
            <g id="Group-11-Copy" transform="translate(10.000000, 0.000000)">
                <path d="M23.4778073,39.4911373 C23.491021,40.217448 22.4052247,40.2474756 22.3782768,39.5215447 C22.3765718,39.4756143 22.3740899,39.3909511 22.3716321,39.2718534 C22.3684748,39.1188545 22.3662763,38.9627999 22.365132,38.80418 L22.1219414,25.4321233 C22.1219414,21.7501314 21.6556697,20.1159987 20.5672596,20.1159987 C20.0942673,20.1159987 19.5716729,20.7567639 19.1284258,21.8844777 C18.7505926,22.8475775 18.5574492,23.9167104 18.5443869,25.046304 L18.3030182,44.6264947 C18.299274,44.9302283 18.0500141,45.1734177 17.7462805,45.1696735 C17.442547,45.1659293 17.1993576,44.9166694 17.2031017,44.6129359 L17.2304601,42.3935874 C17.1845788,42.3375425 17.1254313,42.267374 17.054434,42.1862985 C16.8463624,41.9486911 16.6167176,41.7110287 16.3738654,41.4906785 C15.8614781,41.0257676 15.3645691,40.7068298 14.9395367,40.5971368 C14.1260699,40.3871962 13.5246206,40.9914817 13.1792088,43.0798722 C12.7518843,45.6646369 13.7108067,48.7384179 15.6663608,51.9956504 C16.9775469,54.1796034 18.7246819,56.3570573 19.6691286,57.2574959 C20.1512707,57.7190351 20.4090569,58.4515945 20.5220047,59.387627 C20.586571,59.9227074 20.5982734,60.4806935 20.5754904,61.0159987 L32.0548445,61.0159987 C32.0656222,60.7255281 32.0826764,60.405336 32.1073148,60.0602934 C32.1888048,58.9190887 32.3354895,57.7365966 32.5640444,56.5732399 C32.7414286,55.6651425 33.0734075,54.6388316 33.5224076,53.5317581 C34.4169387,51.3231191 34.9089024,48.9912866 34.9730402,46.6335346 C34.981995,46.3065306 34.9819808,45.9620137 34.9736138,45.600236 C34.9539746,44.7510681 34.891919,43.8659356 34.7899159,42.8147806 C34.7581713,42.4876482 34.6587598,41.5284729 34.6577731,41.5186553 C34.6141481,41.0846078 34.5948666,40.8397868 34.5948666,40.6695264 C34.5948666,40.5522271 34.5984951,40.4056855 34.6059979,40.1944619 C34.6099856,40.082195 34.6271804,39.6393552 34.6297609,39.570302 C34.66468,38.6358845 34.6748809,37.9488107 34.6521727,37.2524156 C34.5894794,35.3297875 34.2449217,34.1668084 33.7734403,34.0807057 C33.4130352,34.015256 32.8016913,35.034647 32.2856309,36.7849523 C32.2444745,36.9245411 32.2044044,37.066378 32.1654365,37.2099927 C32.1106743,37.5644504 32.0455073,37.9237808 31.9715478,38.2851385 C31.8875758,38.6954165 31.7976176,39.0818105 31.7075427,39.4332381 C31.6531455,39.6454693 31.6104392,39.800077 31.5852793,39.8858551 C31.391845,40.5453335 30.4076324,40.3247569 30.514161,39.6458017 C30.5222932,39.5939712 30.5379596,39.49965 30.5610592,39.3688533 C30.5992853,39.1524052 30.6447324,38.9116038 30.6973129,38.6524339 C30.8115427,38.0893942 30.9415627,37.5260991 31.0873133,36.9830806 C31.1532433,36.5472381 31.2020588,36.1213842 31.2303505,35.7127117 C31.3736614,33.6425852 30.9746928,32.4498475 30.024362,32.3321276 C29.1819062,32.2276706 28.3287839,34.1922994 27.840946,37.1509918 C27.8206651,37.4686718 27.7961817,37.8004267 27.7676169,38.14681 C27.7079385,38.8687655 27.6539496,39.3888247 27.6113544,39.6735931 C27.5651213,39.9826824 27.5587887,40.0117358 27.4392782,40.1478796 C26.8794743,40.4021837 26.8794743,40.4021837 26.5289756,40.0320851 C26.4749425,39.8871792 26.4749425,39.8871792 26.4695255,39.8328179 C26.4635409,39.7853242 26.4615768,39.7347945 26.461667,39.6719254 C26.4623437,39.200384 26.5735934,38.0911896 26.7457414,37.0322543 C27.0342805,32.6937097 26.5657283,31.6928024 25.1774763,31.5551717 C24.4870831,31.4870152 23.8985268,32.8779116 23.6300604,35.3119555 C23.5015422,36.4771624 23.4574112,37.6992972 23.4650953,38.7924067 L23.4778073,39.4911373 Z M17.4444654,25.0331649 C17.4590077,23.7755751 17.6758881,22.5750477 18.1045373,21.4824179 C18.7021664,19.9619235 19.4736423,19.0159987 20.5672596,19.0159987 C22.631362,19.0159987 23.2219414,21.08579 23.2218504,25.4221188 L23.3376012,31.7845217 C23.784259,30.8531968 24.4117698,30.374233 25.2857711,30.4605155 C26.6947959,30.6002056 27.4841487,31.2971821 27.7782688,33.1202927 C28.3606919,31.8137619 29.1302664,31.1128443 30.159652,31.240479 C31.4549087,31.4009258 32.1123563,32.3735037 32.3007573,33.9028654 C32.7655263,33.2070918 33.3051516,32.8776733 33.9705206,32.9985047 C35.2249667,33.227593 35.6705579,34.7315885 35.7515884,37.2165657 C35.7753208,37.944371 35.7647944,38.6533707 35.7289937,39.6113802 C35.7263526,39.6820537 35.709215,40.1234201 35.7053046,40.2335099 C35.6982322,40.4326175 35.6948666,40.5685407 35.6948666,40.6695264 C35.6948666,40.7887855 35.7126418,41.0144808 35.7522588,41.4086514 C35.7529202,41.4152316 35.8526102,42.3770945 35.8847731,42.7085366 C35.9891609,43.7842667 36.0529527,44.6941629 36.0733197,45.5748025 C36.0820983,45.9543729 36.0821132,46.3172733 36.0726307,46.6635465 C36.0049007,49.1533522 35.4855819,51.6148439 34.5418603,53.9449363 C34.1170802,54.992292 33.805482,55.9555962 33.643526,56.7847089 C33.4242709,57.9007308 33.2830041,59.0395461 33.2045211,60.1386416 C33.1770639,60.5231578 33.1594316,60.8748692 33.1496562,61.1860475 C33.1438433,61.3710851 33.1419287,61.5003021 33.1419287,61.5659987 C33.1419287,61.8697553 32.8956853,62.1159987 32.5919287,62.1159987 L19.9863833,62.1159987 C19.6586439,62.1159987 19.403635,61.8311732 19.4397288,61.5054274 C19.4450024,61.457834 19.453475,61.3641315 19.4621115,61.2334752 C19.4990523,60.674623 19.4968386,60.0739242 19.4299266,59.5194044 C19.3447699,58.813686 19.1622628,58.2950495 18.909278,58.0528737 C17.894581,57.08546 16.0854555,54.8307472 14.7232737,52.5618543 C12.6459685,49.1018292 11.6150342,45.7972173 12.0939465,42.900413 C12.5318142,40.2530258 13.6510124,39.1285498 15.2144194,39.5320361 C15.8465673,39.6951817 16.4803068,40.1019433 17.1130254,40.6760359 C17.1592253,40.7179551 17.2049148,40.7603305 17.2500665,40.8030863 L17.4444654,25.0331649 Z M25.2215843,23.8654515 C25.0562011,24.1202386 24.7155857,24.1927148 24.4607986,24.0273315 C24.2060115,23.8619483 24.1335354,23.5213329 24.2989186,23.2665458 C24.8134946,22.4737972 25.0507635,21.3317955 24.9614739,19.7867808 C24.8606527,18.0206878 24.005708,17.0120175 22.6051223,16.5262267 C21.2004444,16.0377419 19.8177924,15.9665552 18.8073014,16.4131143 C17.2804486,17.0866274 16.0819511,18.5345964 16.0798223,20.0096509 C16.0798223,20.791009 16.2023197,21.4929166 16.4366818,22.1049606 C16.5453043,22.3886316 16.4033994,22.7066483 16.1197284,22.8152708 C15.8360574,22.9238933 15.5180407,22.7819884 15.4094182,22.4983174 C15.1255613,21.7570161 14.9798223,20.9219344 14.9798229,20.0088574 C14.9826615,18.0413921 16.4733872,16.2403668 18.36301,15.4068315 C19.6675084,14.8303437 21.3224338,14.9155485 22.9660091,15.4871114 C24.7663218,16.1115466 25.9319644,17.4867808 26.0596637,19.7237012 C26.1614793,21.4854559 25.876682,22.8562171 25.2215843,23.8654515 Z M26.4513439,28.0453193 C26.1866224,28.1942845 25.8512632,28.1004454 25.702298,27.8357239 C25.5533329,27.5710024 25.647172,27.2356431 25.9118935,27.086678 C27.0643047,26.4381886 27.9399989,25.4728306 28.574268,24.2629451 C29.8728805,21.7847451 30.3427629,19.2367127 29.6823948,17.2207203 C28.6903059,14.1917217 26.0453225,11.5862218 22.9798483,11.2212429 C17.0109548,10.5102926 12.9202075,13.5066311 12.2249436,18.4397179 C11.6435785,22.5626951 12.7524192,25.3921669 16.1509079,26.8802428 C16.4291596,27.0020792 16.5559592,27.3264146 16.4341228,27.6046663 C16.3122864,27.8829179 15.987951,28.0097175 15.7096994,27.8878812 C11.7941654,26.1734097 10.4920714,22.850806 11.1357136,18.2861664 C11.9161479,12.7487726 16.5582369,9.34859429 23.109923,10.1289607 C26.6445054,10.5497921 29.6125879,13.4735679 30.7277467,16.8783179 C31.4952223,19.2212913 30.9723974,22.0564146 29.5485557,24.7735952 C28.8208279,26.1617556 27.8013147,27.2856584 26.4513439,28.0453193 Z M30.8300687,29.709804 C30.6118653,29.9211222 30.2636693,29.9155406 30.0523511,29.6973372 C29.841033,29.4791339 29.8466145,29.1309379 30.0648179,28.9196197 C31.7348988,27.3022366 32.8957311,25.5258709 33.4280146,23.6628314 C34.7968027,18.8594638 33.696724,13.2581758 30.1013272,10.2317584 C23.1538254,4.38326612 15.324891,4.92744496 10.1420629,10.8333433 C4.11918559,17.6976814 4.36884595,24.133201 13.3470198,30.8641261 C13.9721348,31.332727 14.5969324,31.7377667 15.2250249,32.0844936 C15.4909528,32.2312943 15.5875245,32.5658769 15.4407238,32.8318048 C15.2939232,33.0977327 14.9593406,33.1943044 14.6934127,33.0475037 C14.0202925,32.67592 13.352719,32.2431499 12.6872107,31.7442693 C3.16827174,24.6079332 2.88984596,17.4309246 9.31525041,10.107822 C14.8949575,3.74967508 23.4064409,3.15805315 30.8097164,9.39022124 C34.7752716,12.7282188 35.9635862,18.7787781 34.4857966,23.9646543 C33.8958332,26.029579 32.6299195,27.9667457 30.8300687,29.709804 Z M37.9769659,32.3974818 C37.7994924,32.6440001 37.4557792,32.6999719 37.209261,32.5224985 C36.9627427,32.345025 36.9067709,32.0013118 37.0842443,31.7547936 C40.5686568,26.9147952 41.936798,21.2019783 40.2745494,16.1852643 C36.2077897,3.90802209 26.1686581,-1.25426965 15.308986,2.10368583 C4.16608125,5.5501384 -1.79802546,15.9493195 2.50642584,27.1755545 C4.24155223,31.7011788 8.14799674,35.203288 12.5012458,37.0600965 C12.7806479,37.1792709 12.9105381,37.5023811 12.7913636,37.7817831 C12.6721891,38.0611852 12.349079,38.1910754 12.0696769,38.0719009 C7.46354396,36.1072289 3.3330305,32.4042429 1.47933286,27.5693565 C-3.06606912,15.7147095 3.26378493,4.6778012 14.9839921,1.05279145 C26.415657,-2.48203181 37.0635732,2.99330727 41.3187384,15.8393319 C43.1041242,21.2276775 41.6514518,27.2934634 37.9769659,32.3974818 Z" id="Stroke-1"></path>
            </g>
        </g>
    </g>
</svg>