<?xml version="1.0" encoding="UTF-8"?>
<svg width="63px" height="63px" viewBox="0 0 63 63" version="1.1" xmlns="http://www.w3.org/2000/svg" xmlns:xlink="http://www.w3.org/1999/xlink">
    <!-- Generator: Sketch 51.3 (57544) - http://www.bohemiancoding.com/sketch -->
    <title>ICON/tracktl_icon</title>
    <desc>Created with Sketch.</desc>
    <defs></defs>
    <g id="Symbols" stroke="none" stroke-width="1" fill="none" fill-rule="evenodd">
        <g id="ICON/tracktl_icon" fill="#4900AC" fill-rule="nonzero">
            <path d="M11.1040324,27.6387356 C11.5561853,27.5175214 12.1931668,27.7755075 13.1157629,28.5362446 C14.6241968,29.780041 14.6797097,45.8939249 13.2133201,47.9703326 C12.7194078,48.6697124 12.0449852,48.9934951 11.2786668,48.9681908 C10.6660341,48.9479613 10.0452188,48.7123497 9.43248692,48.3373904 C9.19222937,48.1903656 8.98605581,48.0433427 8.82307044,47.9146757 C6.71895409,48.3507727 5.52359507,46.5263597 5.06981517,44.0629832 C4.96400986,43.4886115 4.97855287,42.671672 5.11285176,38.5988558 C5.1369743,37.8673033 5.15364536,37.333794 5.16838567,36.8057268 C5.23421512,34.447407 5.24089575,32.7777922 5.16980809,31.5657476 C5.06034523,29.6994058 5.61129488,28.5318682 6.63498302,28.0115431 C7.11793703,27.766065 7.61307791,27.7066028 8.04726863,27.7482032 C8.06300351,27.7497108 8.07694042,27.7511884 8.08967926,27.7526802 L11.1040324,27.6387356 Z M11.4622702,28.6502697 C11.4756715,28.6428558 11.4916133,28.6327812 11.5187194,28.6156511 C11.5034717,28.6264721 11.4877211,28.6364597 11.4715378,28.6455901 L11.4622702,28.6502697 Z M11.2265886,28.7148936 L8.08373198,28.8336958 L7.9716573,28.8262424 C7.97804277,28.8271432 7.9629598,28.8250908 7.94426224,28.8232993 C7.69657418,28.799568 7.39752459,28.8354813 7.12435304,28.9743302 C6.51716773,29.2829533 6.1619457,30.0357173 6.24797472,31.502512 C6.32141989,32.7547521 6.31464569,34.4477495 6.2479846,36.8358624 C6.23318349,37.3661079 6.21646197,37.9012322 6.19228453,38.6344495 C6.06609715,42.4612718 6.04907692,43.4173672 6.13196375,43.8673242 C6.50220001,45.8771782 7.41717135,47.214444 8.80751034,46.8059084 C8.98857422,46.7527048 9.184277,46.7978841 9.32369598,46.9250733 C9.45182996,47.0419675 9.69047808,47.2290722 9.9962235,47.4161722 C10.4638605,47.7023411 10.9208205,47.8757664 11.3143103,47.8887596 C11.7228454,47.9022497 12.0501957,47.7450925 12.3311171,47.3473078 C13.5006463,45.6912544 13.447311,30.2094505 12.4286744,29.3695221 C11.7760528,28.8313955 11.4500331,28.6883784 11.4010547,28.6788946 C11.3455769,28.70036 11.2866451,28.7126235 11.2265886,28.7148936 Z M52.8405878,27.2914407 C53.4338015,27.215232 54.0300935,27.298598 54.7060231,27.5300467 C54.7175632,26.8431123 54.5459189,25.873409 54.180358,24.305054 C54.1524261,24.1853792 54.1524261,24.1853792 54.1243648,24.0655507 C53.7549301,22.4885037 53.6324357,21.9003612 53.5567954,21.1907827 C53.3720749,19.4579289 50.4552681,14.5591671 46.8643057,11.3388364 C41.4623602,6.49443848 34.6942109,4.70314157 26.5830983,7.20961978 C20.1195367,9.20697541 15.537382,12.5082077 12.5348026,16.7494225 C10.7999602,19.1999286 9.69154566,21.8248697 9.08650305,24.46187 C8.71058155,26.1002754 8.59084272,27.4227485 8.60284049,28.2626914 C8.61149178,28.5770554 8.3765937,28.8255085 8.07847177,28.833869 C7.78034984,28.8422294 7.53189677,28.6073313 7.5235363,28.3092094 C7.51879017,27.9882102 7.53378713,27.5560733 7.58393002,27.0022628 C7.66125824,26.1482 7.80584338,25.2140219 8.03383667,24.2203425 C8.66888526,21.452565 9.83204878,18.6979678 11.653322,16.125376 C14.7940356,11.6890435 19.5743716,8.24503063 26.2642307,6.17774506 C34.7560351,3.55362627 41.9129392,5.44781322 47.5853725,10.5347812 C51.3604932,13.9202628 54.4147071,19.0497992 54.6307303,21.0763023 C54.6996855,21.7231678 54.8181811,22.2921109 55.1759169,23.819217 C55.2040603,23.9393959 55.2040603,23.9393959 55.2321831,24.0598887 C55.6887169,26.0185417 55.8651532,27.1024168 55.7591862,27.9722878 C56.0697849,28.1224099 56.3993266,28.295616 56.7528039,28.4911566 C57.9016635,29.126696 58.046634,29.7667255 58.046634,32.5493481 C58.046634,33.4089753 58.0685983,34.252703 58.1922109,38.5264936 C58.2021541,38.8707344 58.2021541,38.8707344 58.2120438,39.2159448 C58.297902,42.2212477 58.3382393,44.0139697 58.3382393,45.2071761 C58.3382393,47.0573807 57.3991258,47.793879 55.7437492,47.896638 C55.5642556,47.9077803 55.4283717,47.9116592 55.115909,47.9171839 C54.5071487,47.9279475 54.2674573,47.9554841 54.1619956,48.0207699 C52.7435882,48.8988316 49.8866339,48.8265036 49.2349953,47.3227222 C48.7117361,46.115201 49.5578213,32.6514105 50.0643892,29.6491745 C50.2587395,28.6481647 50.9573646,27.8463894 51.8730235,27.4966206 C51.8123307,27.4122464 51.7752978,27.3094785 51.7719617,27.1977717 C51.5975731,21.358567 49.310048,17.2897744 45.4501749,14.3311573 C44.5785374,13.6630416 43.6571761,13.0745384 42.6279432,12.5043309 C42.2343079,12.2862522 41.8419923,12.0798013 41.3720095,11.8406595 C41.250612,11.7788888 40.4959532,11.3987637 40.3030943,11.299451 C40.1063302,11.1981273 39.906191,11.0908461 39.655141,10.9531016 C39.5488173,10.8947646 39.1866625,10.6946797 39.1348759,10.6661773 C35.0238361,8.40353357 31.5405111,8.20233821 22.7926248,11.1156968 C18.4606787,12.5583895 15.5177343,15.3346545 13.7141489,19.0714008 C12.8265117,20.9104463 12.2653073,22.8833542 11.969237,24.8782549 C11.7760968,26.1796202 11.7218275,27.2814198 11.7425355,28.0709399 C11.7449421,28.1479321 11.7449421,28.1479321 11.745521,28.1589955 C11.7604736,28.4568596 11.5311284,28.7104476 11.2332644,28.7254001 C10.9354003,28.7403527 10.6818123,28.5110075 10.6668598,28.2131435 C10.6656992,28.1895556 10.6656992,28.1895556 10.6628874,28.0992576 C10.6406314,27.25072 10.6979292,26.0874343 10.9009192,24.7197021 C11.2120428,22.6233728 11.8026584,20.54707 12.7414988,18.6019397 C14.6665249,14.613587 17.8286769,11.6305299 22.4513672,10.0910089 C31.4736772,7.08625743 35.2685948,7.30545024 39.6556353,9.71999989 C39.7087299,9.74922225 40.0700197,9.94882928 40.174658,10.0062415 C40.4181082,10.1398162 40.610495,10.2429418 40.7975435,10.3392625 C40.9852519,10.4359229 41.7365411,10.8143507 41.8617972,10.8780849 C42.3421902,11.1225237 42.7451568,11.3345795 43.1513325,11.5596057 C44.224241,12.15401 45.1894935,12.770548 46.1072063,13.4739806 C50.2136119,16.6215665 52.6669247,20.9852437 52.8514998,27.1655311 C52.8527899,27.2087281 52.8489703,27.2508914 52.8405878,27.2914407 Z M52.8523682,28.3823378 L52.7892276,28.3901579 C51.9658295,28.4431604 51.281871,29.0450439 51.1269877,29.8419149 C50.665127,32.5800894 49.8239622,45.9655807 50.2259732,46.8932984 C50.5448132,47.6290829 52.6564769,47.6825427 53.5935223,47.102467 C53.9401967,46.8878591 54.249608,46.8523129 55.096816,46.8373333 C55.3931625,46.8320935 55.5186982,46.8285099 55.6768348,46.8186935 C56.819791,46.7477434 57.2582198,46.4039063 57.2582198,45.2071761 C57.2582198,44.0282906 57.2179995,42.2407632 57.1324648,39.2467872 C57.1225819,38.9018115 57.1225819,38.9018115 57.1126429,38.5577184 C56.9883676,34.2610142 56.9666146,33.4254021 56.9666146,32.5493481 C56.9666146,30.1802779 56.8794553,29.795479 56.2300082,29.4362104 C54.7039287,28.5919962 53.6948506,28.2271436 52.8523682,28.3823378 Z M47.9807762,23.3502304 C47.9847992,23.3565778 47.9892427,23.363583 47.9936606,23.3705408 C47.9901841,23.3650699 47.9859045,23.3583239 47.9807762,23.3502304 Z M47.9745895,23.340463 C47.9767748,23.3439142 47.9788362,23.3471687 47.9807762,23.3502304 C47.9784209,23.3465128 47.9765076,23.3434923 47.9745895,23.340463 Z M47.3793742,22.4016553 C46.8407774,21.5790582 46.3248636,20.9192112 45.6804305,20.2807558 C42.8324767,17.459219 38.1155418,15.8414472 30.2469333,15.8414472 C23.7003901,15.8414472 18.9896941,18.2227859 15.7803175,22.1964556 C14.6563512,23.5880876 13.8003263,25.0805681 13.1775604,26.5722574 C12.9600932,27.0931488 12.7875431,27.5758548 12.6554514,28.0075085 C12.5774062,28.2625473 12.5307439,28.441041 12.5109345,28.5301101 C12.4461865,28.821236 12.1576938,29.0047516 11.8665679,28.9400037 C11.575442,28.8752557 11.3919264,28.586763 11.4566744,28.2956371 C11.4824282,28.17984 11.5361846,27.9742096 11.6227052,27.6914746 C11.7648899,27.2268387 11.9493474,26.7108221 12.180911,26.1561659 C12.84109,24.5748624 13.7476063,22.9943501 14.9401129,21.5178554 C18.3492306,17.2968775 23.3647847,14.7614277 30.2469333,14.7614277 C38.3809299,14.7614277 43.3716804,16.4731104 46.440553,19.5135166 C47.1452284,20.2116557 47.705982,20.9288522 48.2829427,21.8100423 C48.4391166,22.0485662 49.0229719,22.976833 48.9036088,22.7887834 C49.1017531,23.1010599 49.2405496,23.3048896 49.3727436,23.4723543 C51.0763382,25.6236955 51.7433089,27.0054674 51.6513957,28.2266007 C51.6290109,28.5239986 51.3697758,28.7469408 51.0723779,28.724556 C50.77498,28.7021712 50.5520378,28.4429361 50.5744226,28.1455383 C50.6402823,27.2705449 50.0743218,26.0980369 48.5295215,24.1472314 C48.3656561,23.9396541 48.2105735,23.7121653 47.9936606,23.3705408 C48.0937559,23.5280644 47.5279311,22.6285458 47.3793742,22.4016553 Z M48.9036088,22.7887834 C48.899113,22.7817005 48.8936195,22.7730338 48.8870679,22.762687 C48.8916529,22.769928 48.8962057,22.777111 48.9007271,22.7842368 L48.9036088,22.7887834 Z M25.6562958,30.666486 C25.3095011,31.0207741 24.9860939,31.4022343 24.6960225,31.7836778 C24.5227941,32.011473 24.4004846,32.1866867 24.3871993,32.1878066 C24.0981586,32.9124438 23.2613739,33.9327594 21.6161345,34.922307 C21.0518599,35.2616963 20.4186051,35.5753351 19.7126119,35.8585779 C17.6195491,36.6983096 15.8869951,36.6151528 14.5538375,35.9500013 C14.1563745,35.7516953 13.8823839,35.5464226 13.7295982,35.393637 C13.5187113,35.1827501 13.5187113,34.8408348 13.7295982,34.6299479 C13.9404851,34.419061 14.2824004,34.419061 14.4932873,34.6299479 C14.568003,34.7046636 14.7495033,34.840643 15.036009,34.983589 C16.0956,35.5122501 17.5064967,35.5799685 19.3104681,34.8562195 C19.9635305,34.5942124 20.5450947,34.3061749 21.059475,33.9967951 C21.9055222,33.4879306 22.528789,32.9492949 22.9647299,32.4177396 C23.2136727,32.1141966 23.3424395,31.8919591 23.4331119,31.6930381 C23.5090639,31.576415 23.6461914,31.3799738 23.8363411,31.1299271 C24.1519001,30.7149673 24.5036947,30.3000242 24.8844883,29.9110026 C25.6657703,29.112839 26.4669251,28.5251464 27.2810598,28.2383489 C27.6323467,28.1146001 28.0004929,28.3752334 28.0004929,28.7476796 C28.0004929,28.8155213 27.997683,28.9352925 27.9894171,29.0997177 C27.9758428,29.3697354 27.9514903,29.6696132 27.913658,29.9921374 C27.8053828,30.9151937 27.610264,31.8393085 27.3046114,32.707881 C26.9433086,33.7345949 26.4526669,34.6119585 25.8119283,35.2948406 C26.7415373,35.509021 27.6686428,35.7061765 28.6334184,35.8901395 C29.9683357,36.144681 31.2670118,36.3530328 32.4875319,36.4990701 C34.6282172,36.7552066 36.4054558,36.8047264 37.6806649,36.6058695 C43.6623777,35.6730776 49.1735877,34.935136 50.0118587,35.0373641 C50.3079045,35.0734673 50.5186297,35.3427272 50.4825266,35.6387731 C50.4464234,35.9348189 50.1771634,36.1455441 49.8811176,36.109441 C49.2030091,36.0267448 43.5500437,36.7836673 37.8470726,37.672992 C36.4538371,37.890254 34.5896125,37.8383105 32.359221,37.5714405 C31.1117562,37.4221793 29.7890207,37.2099675 28.4311254,36.9510446 C27.4520885,36.7643622 26.5117731,36.5643976 25.6434693,36.3643774 C25.3393031,36.2943105 25.0657245,36.2292055 24.8269101,36.1707154 C24.6829837,36.1354652 24.5822083,36.1101431 24.5287655,36.0964026 C24.0785738,35.9806549 23.9752556,35.3880167 24.3597214,35.126758 C25.2143078,34.5460352 25.8497136,33.5886867 26.2858318,32.3493702 C26.5622831,31.5637789 26.7413739,30.7155752 26.840993,29.866313 C26.849763,29.7915477 26.8576712,29.7192885 26.8647815,29.649726 C26.4684268,29.9071412 26.0620852,30.2519286 25.6562958,30.666486 Z M12.7391941,46.4456862 C12.6099086,46.1769264 12.7229749,45.8542469 12.9917347,45.7249614 C13.2604945,45.5956759 13.583174,45.7087422 13.7124595,45.9775021 C13.7543225,46.0645273 13.8418371,46.2351104 13.9749189,46.4772583 C14.1990707,46.8851119 14.4686735,47.3406989 14.7836024,47.832022 C15.6847162,49.2378567 16.7660963,50.6441993 18.0259027,51.9553303 C21.8100775,55.8936726 26.3546392,58.1484746 31.6671926,57.8872782 C31.9750181,57.8718869 32.2625592,57.8570596 32.534185,57.8425468 C37.2979599,57.5880213 38.8505721,57.3303667 40.41858,56.5252516 C41.2024996,56.1227373 45.0409699,53.5427223 45.2921847,53.3816523 C45.9709531,52.9473865 46.7245635,52.0372835 47.535758,50.7478519 C47.9080093,50.156141 49.313594,47.5997469 49.5356227,47.4493403 C49.7825405,47.2820735 50.1183035,47.3466433 50.2855703,47.593561 C50.4528372,47.8404788 50.3882674,48.1762418 50.1413496,48.3435086 C50.1711279,48.3233363 49.0206449,50.4157665 48.44992,51.3229604 C47.5597974,52.7378519 46.7230584,53.7483458 45.8746796,54.2911255 C45.6836015,54.4136382 41.7620271,57.0495113 40.9119001,57.4860207 C39.1655644,58.3827007 37.5027839,58.6586376 32.5918076,58.921028 C32.3188946,58.9356096 32.0301332,58.9504998 31.7206775,58.9659724 C26.0581352,59.2443766 21.2302098,56.8489824 17.2471229,52.7036245 C15.9351306,51.3381815 14.8114037,49.8767664 13.8743383,48.4148433 C13.5459045,47.9024512 13.2639649,47.4260169 13.0284245,46.9974412 C12.8856909,46.7377315 12.789299,46.5498448 12.7391941,46.4456862 Z M26.1768732,40.3961682 C26.8483799,40.8385099 27.2777381,41.5663865 27.3339502,42.318878 C27.6290403,44.0440204 27.0027042,44.9878557 25.7377011,45.3864109 C25.6090124,45.4269559 25.4774452,45.461448 25.3241992,45.4965087 C25.2434148,45.5149912 24.9970774,45.5678753 24.9777095,45.5721775 C24.8973114,45.5900361 24.8387262,45.6043857 24.8586341,45.5936645 C24.1004262,45.9263958 23.2236847,45.8404212 22.5445547,45.3667422 C21.8654246,44.8930633 21.4818613,44.1000018 21.5321227,43.3382971 C21.442022,41.8183599 22.4541638,40.4538715 23.9317968,40.0972573 C24.6860549,39.8491541 25.5129632,39.9588306 26.1768732,40.3961682 Z M24.2541103,41.1282723 L24.2023147,41.1430735 C23.2232213,41.3707165 22.5507659,42.270939 22.610198,43.339155 C22.5827546,43.7899586 22.7919709,44.2225376 23.1624055,44.4809079 C23.5328401,44.7392783 24.0110627,44.7861735 24.4923416,44.5802109 C24.5653204,44.5592171 24.6433481,44.5401052 24.7435158,44.5178553 C24.7694891,44.5120859 25.0111301,44.46021 25.083328,44.443692 C25.210597,44.4145745 25.3155523,44.3870591 25.4131543,44.3563083 C26.1789712,44.115028 26.4703694,43.6759158 26.2632857,42.4517768 C26.2268254,41.9827393 25.9756242,41.5568862 25.5827509,41.2980888 C25.1898777,41.0392913 24.6994455,40.9766081 24.2541103,41.1282723 Z M26.5850455,41.2409461 C27.0531739,41.5469123 27.3493051,42.0559919 27.3761092,42.5505889 C27.5852362,43.6966044 27.1468012,44.369782 26.2892597,44.6389219 C26.2040345,44.6656699 26.1179896,44.6879111 26.0190835,44.7100163 C25.9678464,44.7214676 25.9011783,44.7353744 25.8077921,44.7549264 C25.7667837,44.7637982 25.7376028,44.7707549 25.805336,44.7430085 C25.2773621,44.9980507 24.6527849,44.9478978 24.1722728,44.6118754 C23.6917608,44.275853 23.4303211,43.7064135 23.4871861,43.2123355 C23.4212669,42.2144847 24.0695042,41.3105232 25.0327415,41.0511389 C25.5510847,40.8703464 26.12465,40.9400339 26.5850455,41.2409461 Z M25.3782137,42.0745603 L25.3262703,42.0906745 C24.8526464,42.2118299 24.5326312,42.6533323 24.5633483,43.2304996 C24.5438906,43.4249777 24.6310372,43.6147908 24.7912079,43.7267983 C24.9513786,43.8388058 25.159571,43.8555234 25.4252951,43.7366236 C25.4714276,43.7237494 25.5194062,43.7123113 25.5794225,43.6993274 C25.6844458,43.6772939 25.7413685,43.66542 25.7835142,43.6560006 C25.8551346,43.6399936 25.9132231,43.6249787 25.9658492,43.608462 C26.3178768,43.4979779 26.4219707,43.3381511 26.3058936,42.680887 C26.2924124,42.4630603 26.176849,42.2643951 25.9941648,42.1449936 C25.8114806,42.0255921 25.5831366,41.9994813 25.3782137,42.0745603 Z M40.3349018,41.2618007 C40.7898974,41.5671669 41.0767508,42.0669913 41.1031565,42.5505889 C41.3138752,43.7053275 40.8717497,44.3778666 40.0061564,44.6435569 C39.9232951,44.6689908 39.8395806,44.6902814 39.7433436,44.7115465 C39.6926896,44.7227392 39.628092,44.7360848 39.5355727,44.7552428 C39.5019233,44.7624244 39.4759349,44.7683666 39.5012748,44.7563677 C38.9882221,44.9967007 38.373596,44.9435369 37.8993201,44.6118754 C37.418808,44.275853 37.1573683,43.7064135 37.213832,43.2056272 C37.1596258,42.1937774 37.833449,41.2881383 38.8152471,41.0475326 C39.3274137,40.8829176 39.887387,40.9614552 40.3349018,41.2618007 Z M39.5012748,44.7563677 C39.5078887,44.7532359 39.5179993,44.7488818 39.5323832,44.7430085 C39.5255312,44.7463185 39.5186629,44.749577 39.5117788,44.7527842 L39.5012748,44.7563677 Z M39.1357773,42.0790292 L39.0848159,42.0935294 C38.5998242,42.2061297 38.2656705,42.6506734 38.2903956,43.2304996 C38.2709378,43.4249777 38.3580844,43.6147908 38.5182551,43.7267983 C38.6784258,43.8388058 38.8866182,43.8555234 39.1554104,43.7357771 C39.2016528,43.7231655 39.2496964,43.7119128 39.3101484,43.6990109 C39.41315,43.6776424 39.4683907,43.6662299 39.5103176,43.6569655 C39.5805092,43.6414556 39.6375207,43.6269563 39.689242,43.6110806 C40.0463429,43.50147 40.150037,43.3437357 40.032958,42.681164 C40.0197668,42.4697837 39.9088971,42.2766 39.7330399,42.158575 C39.5571826,42.04055 39.3363946,42.0111446 39.1357773,42.0790292 Z M36.769386,40.3882491 L36.9274345,40.2540307 C38.0547758,39.6221746 39.4413807,39.6766484 40.4866709,40.376903 C41.9173182,41.2076015 41.9119997,42.5212789 41.1697456,44.7109283 C40.5549952,46.5244422 37.6106024,46.6587303 36.2053304,44.8713229 C35.8641992,44.437428 35.6883619,43.9381369 35.6615994,43.3985988 C35.6265481,42.6919559 35.8420336,41.9678682 36.2169562,41.2561148 C36.4209156,40.8689181 36.6255894,40.568428 36.769386,40.3882491 Z M37.1725104,41.7594618 C36.8797378,42.3152616 36.7164301,42.8640181 36.7402927,43.3450928 C36.7563056,43.6679173 36.856317,43.9519003 37.0543662,44.2038051 C37.9720883,45.3710831 39.8343712,45.2861479 40.1468961,44.3641997 C40.731953,42.6382819 40.7354673,41.7702475 39.9153475,41.2927975 C39.2084382,40.8201095 38.3042725,40.7667315 37.5493708,41.146277 C37.4468085,41.2867024 37.3098967,41.4986476 37.1725104,41.7594618 Z M34.1114107,51.6551337 C34.5920913,51.4644809 35.0109621,51.2020699 35.350481,50.9055545 C34.4079886,50.9163683 32.995139,50.8368506 31.0207714,50.6924738 C30.4928406,50.6538685 29.9424067,50.6110199 29.3752524,50.5646481 C28.7879284,50.5166272 28.201239,50.4663849 27.6268084,50.4153639 C30.249815,52.0396402 32.4065473,52.3313353 34.1114107,51.6551337 Z M36.5683551,50.7804977 C36.6409633,50.7617304 36.7089093,50.7278299 36.7652497,50.6865807 C36.7221315,50.7181494 36.666035,50.7460818 36.5964198,50.7705289 L36.5683551,50.7804977 Z M35.9717969,50.185376 C35.9796783,50.170644 35.9861233,50.1573842 35.991041,50.1458092 C35.9893622,50.1497606 35.9877385,50.1536806 35.9861806,50.1575905 L35.9717969,50.185376 Z M7.48036677,29.4141095 L6.62925404,29.8362614 C6.36207473,29.9687824 6.03805366,29.8596202 5.90553272,29.5924409 C5.77301179,29.3252616 5.88217396,29.0012405 6.14935327,28.8687196 L7.49937759,28.1991075 C7.7665569,28.0665866 8.09057797,28.1757488 8.22309891,28.4429281 C8.31109973,28.6203491 8.29252667,28.8228353 8.19187915,28.9776664 L9.75741391,28.0173641 C10.0116365,27.8614235 10.3441394,27.9410967 10.50008,28.1953193 C10.6560207,28.4495418 10.5763474,28.7820448 10.3221249,28.9379854 L6.13164942,31.5084317 C5.87742688,31.6643723 5.54492393,31.5846991 5.3889833,31.3304765 C5.23304267,31.076254 5.3127159,30.743751 5.56693844,30.5878104 L7.48036677,29.4141095 Z M11.4884194,47.1007455 L9.73532691,47.6851097 C9.45239243,47.7794212 9.14657413,47.626512 9.05226264,47.3435775 C8.97758372,47.1195408 9.05791187,46.8811559 9.23506219,46.7447927 L7.91057147,47.3884952 C7.64233306,47.5188591 7.31920207,47.4070897 7.1888382,47.1388513 C7.05847433,46.8706129 7.17024373,46.5474819 7.43848214,46.417118 L12.8385794,43.7926707 C13.1068178,43.6623069 13.4299488,43.7740763 13.5603127,44.0423147 C13.6906765,44.3105531 13.5789071,44.6336841 13.3106687,44.7640479 L9.44053335,46.6449337 L12.6338531,45.5804938 C12.9167876,45.4861823 13.2226059,45.6390915 13.3169174,45.9220259 C13.4112289,46.2049604 13.2583198,46.5107787 12.9753853,46.6050902 L12.2766596,46.8379988 C12.4882499,46.8428055 12.686235,46.9725573 12.7678174,47.1820758 C12.8760318,47.4599899 12.7384629,47.7730088 12.4605489,47.8812231 L11.2401269,48.3564317 C10.9622128,48.464646 10.6491939,48.3270772 10.5409795,48.0491631 C10.4327652,47.771249 10.570334,47.4582301 10.8482481,47.3500157 L11.4884194,47.1007455 Z M25.9971056,49.18068 C26.2373129,49.2036714 26.509723,49.2292966 26.8090146,49.2568967 C27.664214,49.3357613 28.5631749,49.4146274 29.4632635,49.4882206 C30.0274662,49.5343511 30.5748459,49.576962 31.0995381,49.6153304 C33.8114225,49.8136386 36.0438393,49.8762145 36.1272403,49.8151531 C36.2118599,49.7531995 36.2998404,49.7092039 36.4186131,49.6930327 C36.6754871,49.6580585 36.9278383,49.8011692 37.020717,50.0548984 C37.0916738,50.2487408 37.0613396,50.3886058 36.9850661,50.5681315 C36.9073094,50.7511484 36.7590417,50.9775521 36.5658469,51.2067505 C36.071519,51.793201 35.3672712,52.3188907 34.5096024,52.6590687 C32.0737247,53.6252131 28.9785611,52.9539291 25.3153447,50.1161575 C24.8869555,49.7842986 25.1597123,49.0987203 25.6989943,49.1518487 C25.7517776,49.157049 25.7517776,49.157049 25.9971056,49.18068 Z M11.5685407,28.4298157 C11.8216343,28.2720493 12.1547021,28.3493272 12.3124685,28.6024208 C12.4702349,28.8555143 12.392957,29.1885821 12.1398634,29.3463485 L6.40496015,32.9212129 C6.1518666,33.0789793 5.8187988,33.0017014 5.66103239,32.7486079 C5.50326598,32.4955143 5.5805439,32.1624465 5.83363744,32.0046801 L11.5685407,28.4298157 Z M12.3808256,29.5084278 C12.6346964,29.3519152 12.9673779,29.4308397 13.1238904,29.6847105 C13.280403,29.9385813 13.2014786,30.2712628 12.9476078,30.4277754 L6.27308758,34.5426495 C6.01921676,34.6991621 5.68653528,34.6202376 5.53002268,34.3663668 C5.37351009,34.112496 5.45243453,33.7798145 5.70630535,33.6233019 L12.3808256,29.5084278 Z M12.8557563,30.9882258 C13.1095325,30.8315598 13.4422616,30.9102832 13.5989276,31.1640593 C13.7555936,31.4178355 13.6768703,31.7505646 13.4230941,31.9072307 L6.197764,36.367711 C5.94398783,36.524377 5.6112587,36.4456537 5.45459269,36.1918775 C5.29792669,35.9381013 5.37665003,35.6053722 5.6304262,35.4487062 L12.8557563,30.9882258 Z M12.926905,32.6180283 C13.1752836,32.4529384 13.510466,32.5204571 13.6755559,32.7688357 C13.8406458,33.0172142 13.7731271,33.3523966 13.5247485,33.5174866 C13.4662518,33.5563676 13.4662518,33.5563676 13.2028945,33.7314667 C12.851741,33.9649745 12.851741,33.9649745 12.3542645,34.2958985 C11.4763761,34.8799371 10.598492,35.4643985 9.7791613,36.010473 C7.59327826,37.4673608 6.16898139,38.4214695 6.06804284,38.4981828 C5.83059611,38.6786423 5.49181617,38.6324451 5.31135666,38.3949983 C5.13089715,38.1575516 5.17709441,37.8187717 5.41454114,37.6383122 C5.54541312,37.5388494 6.87914833,36.6454062 9.16477131,35.1220418 C9.99979664,34.5655069 10.877922,33.980885 11.7560431,33.3966915 C12.2536386,33.0656884 12.2536386,33.0656884 12.604889,32.8321161 C12.8683345,32.6569584 12.8683345,32.6569584 12.926905,32.6180283 Z M12.9320023,34.5562188 C13.1895734,34.4058736 13.520255,34.4927974 13.6706002,34.7503685 C13.8209454,35.0079397 13.7340217,35.3386212 13.4764505,35.4889664 L6.18631922,39.7442431 C5.92874808,39.8945883 5.59806652,39.8076645 5.44772129,39.5500934 C5.29737606,39.2925222 5.38429983,38.9618407 5.64187098,38.8114955 L12.9320023,34.5562188 Z M12.9096562,36.140046 C13.1514325,35.9654298 13.4889853,36.0198738 13.6636015,36.26165 C13.8382177,36.5034263 13.7837737,36.8409791 13.5419974,37.0155953 C13.4337591,37.0937674 12.1950205,37.8192387 9.87310111,39.1703609 L9.85438636,39.1812508 C9.05641213,39.6455803 8.20147612,40.142379 7.34654521,40.6387241 C6.86209223,40.9199442 6.86209223,40.9199442 6.52011757,41.118371 C6.26362712,41.2671683 6.26362712,41.2671683 6.20659621,41.3002411 C5.94859983,41.4498554 5.61816606,41.3619944 5.46855172,41.103998 C5.31893738,40.8460016 5.40679838,40.5155679 5.66479476,40.3659535 C5.72173574,40.3329329 5.72173574,40.3329329 5.97811873,40.1841979 C6.31997533,39.9858397 6.31997533,39.9858397 6.80428331,39.7047037 C7.65893054,39.2085233 8.51357269,38.7118954 9.31120474,38.247765 L9.32991002,38.2368806 C11.3961703,37.0345262 12.8503293,36.1828932 12.9096562,36.140046 Z M13.0119079,37.4589852 C13.270852,37.3110172 13.6007195,37.400981 13.7486875,37.6599251 C13.8966555,37.9188692 13.8066917,38.2487366 13.5477476,38.3967047 L5.98761145,42.7167825 C5.72866737,42.8647506 5.39879991,42.7747867 5.25083186,42.5158426 C5.10286381,42.2568985 5.19282766,41.9270311 5.45177175,41.779063 L13.0119079,37.4589852 Z M12.9504255,39.1360249 C13.2136723,38.9958545 13.5407065,39.0956277 13.6808768,39.3588744 C13.8210472,39.6221212 13.721274,39.9491554 13.4580273,40.0893257 L5.97349247,44.0745975 C5.71024571,44.2147678 5.38321153,44.1149947 5.24304118,43.8517479 C5.10287083,43.5885012 5.20264397,43.261467 5.46589073,43.1212967 L12.9504255,39.1360249 Z M13.1210687,40.7869324 C13.3732266,40.6276748 13.7067447,40.7029854 13.8660023,40.9551433 C14.0252599,41.2073011 13.9499494,41.5408193 13.6977915,41.7000769 C13.5813126,41.7736425 12.3539467,42.378097 10.0277639,43.5142849 L10.0036294,43.5260728 C9.20556652,43.9158592 8.3505433,44.3327356 7.49552625,44.7491222 C7.01102615,44.9850294 7.01102615,44.9850294 6.66901655,45.1514637 C6.41249787,45.2762646 6.41249787,45.2762646 6.35545364,45.3040041 C6.08724481,45.4344288 5.76408847,45.3227327 5.63366375,45.0545239 C5.50323903,44.7863151 5.61493512,44.4631587 5.88314395,44.332734 C5.94007904,44.3050476 5.94007904,44.3050476 6.19646731,44.1803102 C6.53833362,44.0139456 6.53833362,44.0139456 7.02265775,43.7781241 C7.8773305,43.3619051 8.73199709,42.9452026 9.52964468,42.5556191 L9.55376435,42.5438384 C11.6013578,41.5437231 13.0609539,40.8248996 13.1210687,40.7869324 Z M12.8979255,42.2401319 C13.1646787,42.1067553 13.489048,42.2148784 13.6224246,42.4816316 C13.7558012,42.7483848 13.6476781,43.0727541 13.3809249,43.2061307 L6.90080821,46.4461891 C6.63405502,46.5795657 6.30968574,46.4714426 6.17630914,46.2046894 C6.04293254,45.9379362 6.15105564,45.6135669 6.41780883,45.4801903 L12.8979255,42.2401319 Z M53.3492721,27.7526997 C53.6005452,27.5920497 53.9344748,27.6655143 54.0951248,27.9167873 C54.2557748,28.1680604 54.1823103,28.50199 53.9310372,28.66264 L51.2957898,30.3474704 C51.0445167,30.5081204 50.710587,30.4346559 50.549937,30.1833828 C50.389287,29.9321097 50.4627516,29.5981801 50.7140246,29.4375301 L53.3492721,27.7526997 Z M54.9586693,28.3644858 C55.2060901,28.1979639 55.5416569,28.2635455 55.7081788,28.5109663 C55.8747007,28.7583871 55.8091192,29.0939539 55.5616984,29.2604758 L51.0364169,32.3061306 C50.7889961,32.4726525 50.4534292,32.407071 50.2869074,32.1596502 C50.1203855,31.9122294 50.185967,31.5766625 50.4333878,31.4101407 L54.9586693,28.3644858 Z M56.2521451,29.2446566 C56.5025732,29.0826925 56.8368831,29.1544068 56.9988472,29.4048349 C57.1608112,29.655263 57.0890969,29.9895729 56.8386688,30.1515369 L50.6933581,34.1260085 C50.44293,34.2879725 50.1086202,34.2162583 49.9466561,33.9658302 C49.7846921,33.7154021 49.8564064,33.3810922 50.1068345,33.2191281 L56.2521451,29.2446566 Z M56.783685,30.4598698 C57.031025,30.293228 57.3666236,30.3586468 57.5332654,30.6059868 C57.6999073,30.8533269 57.6344884,31.1889254 57.3871484,31.3555673 L50.7666292,35.8160476 C50.5192891,35.9826894 50.1836906,35.9172706 50.0170487,35.6699305 C49.8504069,35.4225905 49.9158258,35.0869919 50.1631658,34.9203501 L56.783685,30.4598698 Z M56.7241812,32.1411763 C56.9734674,31.9774601 57.3082719,32.0468284 57.4719881,32.2961145 C57.6357043,32.5454007 57.5663361,32.8802053 57.3170499,33.0439214 L50.4265258,37.5692029 C50.1772396,37.7329191 49.842435,37.6635509 49.6787189,37.4142647 C49.5150027,37.1649785 49.5843709,36.830174 49.8336571,36.6664578 L56.7241812,32.1411763 Z M56.8564441,33.7594694 C57.1066891,33.5972226 57.4410798,33.6685593 57.6033266,33.9188043 C57.7655733,34.1690493 57.6942367,34.50344 57.4439916,34.6656867 L50.5642677,39.1261671 C50.3140227,39.2884138 49.9796321,39.2170772 49.8173853,38.9668321 C49.6551385,38.7165871 49.7264752,38.3821965 49.9767202,38.2199497 L56.8564441,33.7594694 Z M56.9328808,35.242561 C57.1871769,35.0867404 57.5196423,35.1665706 57.6754629,35.4208667 C57.8312835,35.6751628 57.7514534,36.0076281 57.4971573,36.1634487 L50.5526322,40.4187254 C50.2983361,40.574546 49.9658708,40.4947159 49.8100501,40.2404197 C49.6542295,39.9861236 49.7340596,39.6536583 49.9883558,39.4978377 L56.9328808,35.242561 Z M56.7817259,36.6713078 C57.0283335,36.503584 57.3642155,36.567532 57.5319393,36.8141396 C57.6996631,37.0607472 57.6357151,37.3966291 57.3891075,37.5643529 L50.4337823,42.2948381 C50.1871747,42.4625619 49.8512927,42.398614 49.6835689,42.1520064 C49.5158451,41.9053988 49.579793,41.5695168 49.8264006,41.401793 L56.7817259,36.6713078 Z M56.6472515,38.222561 C56.8960544,38.0581112 57.2310618,38.1264929 57.3955116,38.3752957 C57.5599614,38.6240986 57.4915797,38.959106 57.2427768,39.1235558 L50.2982518,43.7136384 C50.0494489,43.8780882 49.7144415,43.8097065 49.5499917,43.5609037 C49.3855419,43.3121009 49.4539236,42.9770934 49.7027264,42.8126437 L56.6472515,38.222561 Z M56.9073325,39.5145029 C57.1524247,39.3445723 57.4888671,39.4055028 57.6587977,39.650595 C57.8287283,39.8956872 57.7677978,40.2321296 57.5227056,40.4020602 L50.2325743,45.4565512 C49.9874821,45.6264818 49.6510397,45.5655513 49.4811091,45.3204591 C49.3111785,45.0753669 49.372109,44.7389245 49.6172012,44.5689939 L56.9073325,39.5145029 Z M49.0353969,16.7256175 C48.7965206,16.7778468 48.5443511,16.6618151 48.4337846,16.4318368 C48.3045592,16.1630481 48.4176977,15.8403939 48.6864864,15.7111685 L50.3713168,14.9011539 C50.6401055,14.7719286 50.9627597,14.885067 51.0919851,15.1538558 C51.2212104,15.4226445 51.108072,15.7452987 50.8392832,15.8745241 L49.3922803,16.5701986 L51.1917042,16.0165297 C51.4767549,15.9288218 51.7789355,16.0887997 51.8666434,16.3738504 C51.9543513,16.6589011 51.7943733,16.9610817 51.5093226,17.0487896 L49.5436872,17.6536005 C49.2586365,17.7413084 48.956456,17.5813304 48.8687481,17.2962797 C48.8032742,17.0834897 48.8758259,16.8611538 49.0353969,16.7256175 Z M47.5251986,15.1337297 C47.2889383,15.2422037 47.0021658,15.1667331 46.85236,14.944013 C46.6859083,14.696545 46.751585,14.3609968 46.999053,14.1945451 L48.8134857,12.9741231 C49.0609537,12.8076714 49.3965019,12.8733481 49.5629536,13.1208161 C49.7294053,13.3682842 49.6637286,13.7038324 49.4162606,13.8702841 L48.734155,14.3290813 L49.671473,13.8309638 C49.9348331,13.6910066 50.2617864,13.7910446 50.4017435,14.0544048 C50.5417007,14.3177649 50.4416627,14.6447182 50.1783025,14.7846753 L48.2882685,15.7890934 C48.0249083,15.9290506 47.697955,15.8290126 47.5579979,15.5656524 C47.484376,15.4271166 47.477163,15.2709839 47.5251986,15.1337297 Z M43.8103751,11.5584972 L45.4281691,9.94070324 C45.8427903,9.52608205 46.5281649,9.9765844 46.3119822,10.5216408 L45.8756485,11.6217589 L46.8219189,11.0664359 C47.0791365,10.9154866 47.4100212,11.0016341 47.5609704,11.2588517 C47.7119197,11.5160693 47.6257723,11.8469539 47.3685547,11.9979032 L45.0681132,13.3479275 C44.6250052,13.6079674 44.1034058,13.1606835 44.2928268,12.6831008 L44.3557892,12.5243551 C44.146348,12.661488 43.862558,12.6380442 43.6785376,12.4540238 C43.5300423,12.3055285 43.4861094,12.0920664 43.5467391,11.9051298 L43.4749825,11.9994764 C43.2944382,12.2368587 42.9556418,12.282935 42.7182595,12.1023907 C42.4808772,11.9218465 42.4348009,11.5830501 42.6153452,11.3456678 L44.3649767,9.04522634 C44.545521,8.80784405 44.8843174,8.76176774 45.1216997,8.94231201 C45.359082,9.12285628 45.4051583,9.4616527 45.224614,9.69903498 L43.8103751,11.5584972 Z M39.0639006,9.9131509 C38.9059708,10.0059298 38.7047291,10.0160414 38.5320617,9.92221756 C38.2700106,9.77982448 38.1730086,9.45195767 38.3154017,9.18990654 L39.6006248,6.82466394 C39.7430179,6.56261282 40.0708847,6.4656108 40.3329358,6.60800388 C40.5775433,6.74091842 40.6783436,7.03543605 40.5748711,7.28718305 L40.6334592,7.1942063 C40.7924566,6.94188428 41.1258969,6.86622976 41.378219,7.0252272 C41.630541,7.18422463 41.7061955,7.51766492 41.5471981,7.76998694 L40.0567712,10.1352295 C39.8977738,10.3875516 39.5643335,10.4632061 39.3120115,10.3042086 C39.1692685,10.214261 39.0830655,10.0684853 39.0639006,9.9131509 Z M37.1702991,9.06115044 C37.0297803,9.17218781 36.8371188,9.21095314 36.6557012,9.14707369 C36.3743915,9.04802098 36.226643,8.73967633 36.3256957,8.45836664 L37.1357103,6.1579252 C37.234763,5.87661551 37.5431077,5.72886703 37.8244174,5.82791974 C38.1057271,5.92697245 38.2534756,6.2353171 38.1544228,6.51662679 L37.5956294,8.10360005 L38.4537484,6.49367784 C38.5940317,6.23049131 38.9211087,6.13085862 39.1842953,6.27114201 C39.4474818,6.4114254 39.5471145,6.7385024 39.4068311,7.00168894 L38.1864091,9.29133017 C38.0461257,9.55451671 37.7190487,9.6541494 37.4558622,9.51386601 C37.2812357,9.42078678 37.1786127,9.24547288 37.1702991,9.06115044 Z M32.9853617,8.09505033 C32.9528098,8.33526726 32.760299,8.53161867 32.5084601,8.55896118 C32.2119634,8.59115226 31.9455093,8.37689018 31.9133182,8.08039344 L31.9097222,8.04727282 C31.8991431,8.2751836 31.7437194,8.48021742 31.5116951,8.54323638 C31.2238829,8.62140758 30.9271947,8.45146 30.8490235,8.16364783 L30.373815,6.41401632 C30.2956438,6.12620415 30.4655914,5.82951601 30.7534035,5.7513448 C31.0412157,5.67317359 31.3379038,5.84312117 31.416075,6.13093334 L31.8912836,7.88056485 C31.8914743,7.88126685 31.8916635,7.88196891 31.8918512,7.88267101 L31.7081145,6.1903594 C31.6759234,5.89386266 31.8901855,5.62740854 32.1866822,5.59521746 C32.483179,5.56302639 32.7496331,5.77728847 32.7818242,6.07378521 L32.942247,7.55136409 L33.1231658,5.9421389 C33.1564858,5.6457669 33.4237539,5.43252106 33.7201259,5.46584099 C34.0164979,5.49916092 34.2297437,5.76642903 34.1964238,6.06280104 L33.9912201,7.88803391 C33.9579002,8.18440592 33.690632,8.39765176 33.39426,8.36433183 C33.216072,8.34429885 33.0679323,8.2396986 32.9853617,8.09505033 Z M26.3050415,7.00151881 C26.3104901,6.82512488 26.4021882,6.65491586 26.564198,6.55635044 C26.8189879,6.40133844 27.1511979,6.48222436 27.3062099,6.7370142 L28.2458268,8.28144201 C28.4008388,8.53623185 28.3199529,8.86844188 28.065163,9.02345388 C27.8103732,9.17846588 27.4781632,9.09757996 27.3231512,8.84279012 L26.5228326,7.52732399 L26.8815696,8.59538184 C26.9765283,8.87809977 26.8243194,9.18426717 26.5416014,9.27922586 C26.2588835,9.37418456 25.9527161,9.22197562 25.8577574,8.93925769 L25.3825489,7.52443221 C25.2875902,7.24171428 25.4397991,6.93554688 25.722517,6.84058819 C25.9375393,6.76836697 26.1661257,6.83911798 26.3050415,7.00151881 Z M23.8073708,9.93430327 C23.8218744,10.0805918 23.7769441,10.2322319 23.670596,10.3498736 C23.4705961,10.5711124 23.1291147,10.58833 22.9078758,10.3883301 L21.5578515,9.16790811 C21.3366127,8.9679082 21.3193951,8.62642674 21.519395,8.4051879 C21.7193949,8.18394907 22.0608764,8.16673152 22.2821152,8.36673142 L23.5031495,9.47054642 L22.9927521,8.55507161 C22.847523,8.29458146 22.9409606,7.9656811 23.2014508,7.82045208 C23.4619409,7.67522306 23.7908413,7.76866066 23.9360703,8.02915081 L24.6164826,9.24957279 C24.7617116,9.51006293 24.668274,9.8389633 24.4077838,9.98419231 C24.2103613,10.0942597 23.9736443,10.0672382 23.8073708,9.93430327 Z M17.8531632,12.0721793 L17.5320935,11.9908416 C17.2429872,11.9176014 17.0679932,11.6238615 17.1412335,11.3347552 C17.2144737,11.0456489 17.5082137,10.8706549 17.79732,10.9438952 L19.4173491,11.3543025 C19.7064554,11.4275428 19.8814494,11.7212827 19.8082092,12.010389 C19.7349689,12.2994953 19.441229,12.4744893 19.1521227,12.401249 L18.2478032,12.1721548 C18.3851544,12.2700582 18.4747213,12.4306639 18.4747213,12.612189 C18.4747213,12.9104281 18.2329507,13.1521987 17.9347116,13.1521987 L16.9061216,13.1521987 C17.0629132,13.2370643 17.1743917,13.3977112 17.1881107,13.5887217 C17.2094762,13.8861946 16.9856469,14.1446641 16.688174,14.1660295 L14.7333388,14.3064321 C14.435866,14.3277975 14.1773964,14.1039683 14.156031,13.8064954 C14.1346655,13.5090225 14.3584948,13.250553 14.6559677,13.2291876 L16.0237752,13.1309473 C15.7987715,13.0657819 15.6342702,12.8581961 15.6342702,12.612189 C15.6342702,12.3139499 15.8760408,12.0721793 16.1742799,12.0721793 L17.8531632,12.0721793 Z M57.0322307,45.2956821 C57.2371289,45.2499163 57.4588365,45.3266181 57.5889619,45.5079632 C57.7628344,45.7502748 57.7073535,46.0876587 57.4650419,46.2615312 L56.0502164,47.2767495 C55.8079047,47.450622 55.4705208,47.3951411 55.2966483,47.1528294 C55.1227758,46.9105178 55.1782567,46.5731338 55.4205684,46.3992614 L56.5871248,45.5621904 L52.4379357,48.0465281 C52.182057,48.1997362 51.8504267,48.1165052 51.6972187,47.8606265 C51.5440107,47.6047478 51.6272417,47.2731176 51.8831204,47.1199096 L57.0780139,44.0094535 C57.3338926,43.8562455 57.6655229,43.9394765 57.8187309,44.1953552 C57.9719389,44.4512338 57.8887079,44.7828641 57.6328292,44.9360721 L57.0322307,45.2956821 Z M56.9959949,40.9205517 C57.2459344,40.7578345 57.5804586,40.8285421 57.7431757,41.0784815 C57.9058929,41.3284209 57.8351853,41.6629452 57.5852459,41.8256623 L50.2195132,46.6209487 C49.9695738,46.7836659 49.6350496,46.7129583 49.4723324,46.4630188 C49.3096153,46.2130794 49.3803229,45.8785552 49.6302623,45.715838 L56.9959949,40.9205517 Z M57.1379037,42.468002 C57.3921386,42.3120815 57.7246352,42.3917811 57.8805557,42.646016 C58.0364762,42.9002509 57.9567767,43.2327475 57.7025418,43.388668 L50.552813,47.773547 C50.2985781,47.9294675 49.9660815,47.8497679 49.810161,47.595533 C49.6542405,47.3412981 49.73394,47.0088015 49.9881749,46.852881 L57.1379037,42.468002 Z M10.5985055,26.3470106 C10.8805214,26.2499868 11.1877938,26.3999525 11.2848176,26.6819684 C11.3818414,26.9639843 11.2318757,27.2712567 10.9498598,27.3682805 L8.59541738,28.1782951 C8.3134015,28.2753189 8.0061291,28.1253532 7.90910529,27.8433373 C7.81208147,27.5613214 7.96204718,27.254049 8.24406307,27.1570252 L10.5985055,26.3470106 Z M10.5845726,24.8723921 C10.8638226,24.7676733 11.1750907,24.9091589 11.2798095,25.1884089 C11.3845282,25.4676589 11.2430427,25.778927 10.9637927,25.8836458 L8.8037538,26.6936604 C8.5245038,26.7983791 8.21323562,26.6568936 8.10851687,26.3776436 C8.00379811,26.0983936 8.14528365,25.7871254 8.42453365,25.6824067 L10.5845726,24.8723921 Z M10.8414774,23.5274758 C11.1179063,23.4155221 11.4327526,23.5488556 11.5447063,23.8252845 C11.65666,24.1017134 11.5233265,24.4165597 11.2468976,24.5285135 L9.08685872,25.4033292 C8.8104298,25.5152829 8.49558347,25.3819494 8.38362975,25.1055205 C8.27167604,24.8290916 8.40500954,24.5142452 8.68143846,24.4022915 L10.8414774,23.5274758 Z M11.4383698,21.8398402 C11.7103832,21.7175484 12.0300307,21.8389218 12.1523225,22.1109353 C12.2746142,22.3829487 12.1532408,22.7025962 11.8812274,22.824888 L9.3107811,23.9805088 C9.03876766,24.1028005 8.71912015,23.9814271 8.59682839,23.7094137 C8.47453664,23.4374003 8.59591004,23.1177528 8.86792348,22.995461 L11.4383698,21.8398402 Z M11.7932613,20.4164684 C12.0699948,20.3052695 12.384476,20.4394619 12.4956748,20.7161953 C12.6068737,20.9929288 12.4726814,21.30741 12.1959479,21.4186088 L9.8307053,22.3690259 C9.55397185,22.4802248 9.2394906,22.3460325 9.12829178,22.069299 C9.01709295,21.7925656 9.15128527,21.4780843 9.42801872,21.3668855 L11.7932613,20.4164684 Z M12.543999,18.9346571 C12.821939,18.8265093 13.134925,18.964153 13.2430729,19.2420929 C13.3512207,19.5200329 13.213577,19.8330189 12.935637,19.9411668 L10.159987,21.0211862 C9.88204707,21.1293341 9.56906106,20.9916904 9.46091321,20.7137504 C9.35276537,20.4358104 9.49040908,20.1228244 9.76834904,20.0146766 L12.543999,18.9346571 Z M13.3790666,17.3055846 C13.662001,17.2112731 13.9678193,17.3641822 14.0621308,17.6471167 C14.1564423,17.9300512 14.0035332,18.2358695 13.7205987,18.330181 L11.2905549,19.1401956 C11.0076204,19.2345071 10.7018021,19.0815979 10.6074906,18.7986634 C10.5131792,18.5157289 10.6660883,18.2099106 10.9490228,18.1155992 L13.3790666,17.3055846 Z M14.2700943,15.7452347 C14.5558575,15.6598768 14.8567106,15.8223375 14.9420685,16.1081007 C15.0274263,16.3938639 14.8649657,16.694717 14.5792024,16.7800748 L12.0843575,17.5252883 C11.7985943,17.6106461 11.4977412,17.4481855 11.4123834,17.1624222 C11.3270255,16.876659 11.4894862,16.5758059 11.7752494,16.4904481 L14.2700943,15.7452347 Z M15.4092034,14.3811259 C15.7027453,14.3284024 15.9834488,14.5236242 16.0361723,14.817166 C16.0888959,15.1107079 15.8936741,15.3914114 15.6001322,15.444135 L13.3752922,15.8437422 C13.0817503,15.8964657 12.8010468,15.7012439 12.7483232,15.407702 C12.6955997,15.1141602 12.8908215,14.8334567 13.1843634,14.7807331 L15.4092034,14.3811259 Z M20.7338273,10.6180162 C21.0180032,10.7085181 21.1750071,11.0122546 21.0845052,11.2964306 C20.9940033,11.5806065 20.6902668,11.7376104 20.4060909,11.6471085 L18.7104603,11.1070988 C18.4262843,11.0165969 18.2692805,10.7128604 18.3597824,10.4286844 C18.4502843,10.1445085 18.7540207,9.9875046 19.0381967,10.0780065 L20.7338273,10.6180162 Z M22.1130071,10.0592955 C22.3717283,10.207653 22.4611956,10.5376555 22.312838,10.7963766 C22.1644805,11.0550977 21.834478,11.1445651 21.5757569,10.9962075 L20.0313291,10.1105915 C19.7726079,9.96223398 19.6831406,9.63223151 19.8314982,9.37351039 C19.9798557,9.11478927 20.3098582,9.02532194 20.5685793,9.1736795 L22.1130071,10.0592955 Z M25.8239602,8.91095727 C25.9712932,9.17026325 25.8805211,9.49990922 25.6212151,9.64724215 C25.3619091,9.79457509 25.0322632,9.70380301 24.8849302,9.44449704 L24.0749156,8.01887137 C23.9275827,7.75956539 24.0183548,7.42991942 24.2776608,7.28258648 C24.5369667,7.13525354 24.8666127,7.22602562 25.0139456,7.4853316 L25.8239602,8.91095727 Z M29.389607,8.2416889 C29.459208,8.53169285 29.2805361,8.82321022 28.9905321,8.89281117 C28.7005282,8.96241212 28.4090108,8.78374018 28.3394098,8.49373623 C28.3253619,8.43520322 28.204687,8.14458356 28.0359332,7.76846737 C28.021762,7.73691128 28.021762,7.73691128 28.0075515,7.70537603 C27.8705317,7.40155771 27.733128,7.10645411 27.6419922,6.91389283 C27.5144085,6.64432096 27.6295127,6.3223628 27.8990846,6.19477916 C28.1686565,6.06719552 28.4906146,6.18229973 28.6181983,6.45187161 C28.7119223,6.64990134 28.8518084,6.95033659 28.9920784,7.26136177 C29.0067027,7.29381507 29.0067027,7.29381507 29.0213143,7.3263519 C29.229919,7.79128723 29.3521708,8.08570435 29.389607,8.2416889 Z M30.560139,8.16250887 C30.560139,8.46074801 30.3183684,8.7025186 30.0201293,8.7025186 C29.7218901,8.7025186 29.4801195,8.46074801 29.4801195,8.16250887 C29.4801195,8.11050983 29.4263022,7.80765222 29.3447942,7.41974991 C29.3320907,7.35949751 29.3320907,7.35949751 29.3192775,7.29946843 C29.2553044,7.0005939 29.1911723,6.71767793 29.1486676,6.5357049 C29.0808319,6.24528298 29.2612736,5.95485774 29.5516955,5.88702196 C29.8421174,5.81918619 30.1325427,5.99962791 30.2003784,6.29004982 C30.2442753,6.47798345 30.3097456,6.76680278 30.3753748,7.07341416 C30.3885862,7.13530881 30.3885862,7.13530881 30.4017324,7.19766059 C30.5055619,7.69179247 30.560139,7.99892558 30.560139,8.16250887 Z M35.0593385,8.14966452 C34.9888901,8.43946376 34.6968516,8.61728272 34.4070524,8.54683429 C34.1172531,8.47638585 33.9394342,8.18434741 34.0098826,7.89454817 L34.4850912,5.93971296 C34.5555396,5.64991372 34.8475781,5.47209476 35.1373773,5.54254319 C35.4271765,5.61299163 35.6049955,5.90503007 35.5345471,6.19482931 L35.0593385,8.14966452 Z M36.1362841,8.50731015 C36.0591865,8.79541176 35.763134,8.9664643 35.4750324,8.88936669 C35.1869308,8.81226907 35.0158783,8.5162166 35.0929759,8.22811499 L35.708587,5.92767356 C35.7856846,5.63957194 36.0817371,5.4685194 36.3698387,5.54561702 C36.6579403,5.62271463 36.8289928,5.9187671 36.7518952,6.20686872 L36.1362841,8.50731015 Z M41.265848,10.832905 C41.0973163,11.0789612 40.7612264,11.1418073 40.5151702,10.9732757 C40.269114,10.804744 40.2062679,10.4686541 40.3747996,10.2225979 L41.9948288,7.85735531 C42.1633604,7.61129909 42.4994503,7.54845302 42.7455065,7.71698468 C42.9915627,7.88551633 43.0544088,8.22160621 42.8858771,8.46766243 L41.265848,10.832905 Z M42.2579336,11.4549836 C42.0798652,11.6942288 41.7415658,11.7438224 41.5023206,11.5657541 C41.2630755,11.3876857 41.2134818,11.0493863 41.3915502,10.8101411 L43.1519819,8.44489854 C43.3300502,8.20565336 43.6683496,8.15605973 43.9075948,8.33412806 C44.14684,8.51219638 44.1964336,8.85049582 44.0183653,9.08974099 L42.2579336,11.4549836 Z M46.6430185,14.2370764 C46.4196384,14.4346819 46.0783622,14.4137874 45.8807568,14.1904073 C45.6831513,13.9670272 45.7040458,13.625751 45.9274259,13.4281456 L47.6122562,11.9377187 C47.8356363,11.7401133 48.1769125,11.7610077 48.374518,11.9843878 C48.5721234,12.2077679 48.551229,12.5490441 48.3278489,12.7466496 L46.6430185,14.2370764 Z M50.3428117,18.7786384 C50.0686867,18.8961205 49.7512263,18.7691364 49.6337442,18.4950114 C49.516262,18.2208864 49.6432462,17.903426 49.9173712,17.7859439 L51.8074052,16.9759293 C52.0815303,16.8584471 52.3989906,16.9854313 52.5164727,17.2595563 C52.6339549,17.5336813 52.5069708,17.8511416 52.2328457,17.9686238 L50.3428117,18.7786384 Z M50.4954277,19.8780315 C50.2106029,19.9664703 49.908013,19.8072679 49.8195742,19.5224431 C49.7311355,19.2376183 49.8903378,18.9350284 50.1751626,18.8465897 L52.5404052,18.1121764 C52.82523,18.0237377 53.1278199,18.18294 53.2162587,18.4677648 C53.3046974,18.7525896 53.1454951,19.0551795 52.8606703,19.1436183 L50.4954277,19.8780315 Z M51.2012294,20.8390707 C50.9105382,20.905743 50.6208378,20.7241398 50.5541655,20.4334486 C50.4874932,20.1427574 50.6690965,19.853057 50.9597877,19.7863847 L53.3142301,19.246375 C53.8370843,19.1264543 54.1960022,19.7597179 53.8245071,20.1466919 L52.9267326,21.0818737 L53.6881761,21.0582019 C53.9862712,21.0489347 54.2354376,21.283076 54.2447048,21.5811711 C54.253972,21.8792662 54.0198307,22.1284326 53.7217356,22.1376998 L51.637298,22.202501 C51.1536506,22.2175367 50.8958591,21.6378438 51.2309621,21.2887781 L51.7929735,20.7033496 L51.2012294,20.8390707 Z M52.0505279,23.5516893 C51.7528945,23.5326915 51.5270158,23.2760111 51.5460136,22.9783776 C51.5650115,22.6807442 51.8216919,22.4548654 52.1193254,22.4738633 L54.1497619,22.6034657 C54.4473954,22.6224635 54.6732741,22.8791439 54.6542762,23.1767774 C54.6352784,23.4744108 54.378598,23.7002896 54.0809645,23.6812917 L52.0505279,23.5516893 Z M52.4305329,24.8380092 C52.1322937,24.8380092 51.8905232,24.5962386 51.8905232,24.2979995 C51.8905232,23.9997603 52.1322937,23.7579898 52.4305329,23.7579898 L53.9101595,23.7579898 C54.2083987,23.7579898 54.4501693,23.9997603 54.4501693,24.2979995 C54.4501693,24.5962386 54.2083987,24.8380092 53.9101595,24.8380092 L52.4305329,24.8380092 Z M52.3382382,25.9177706 C52.0401416,25.9085511 51.8059604,25.6594222 51.8151799,25.3613256 C51.8243994,25.063229 52.0735283,24.8290478 52.3716249,24.8382673 L54.4668626,24.9030685 C54.7649592,24.9122879 54.9991404,25.1614168 54.9899209,25.4595134 C54.9807014,25.75761 54.7315725,25.9917912 54.4334759,25.9825717 L52.3382382,25.9177706 Z M52.6087434,27.2678101 C52.3106384,27.258867 52.0762263,27.0099553 52.0851695,26.7118502 C52.0941126,26.4137452 52.3430244,26.1793332 52.6411294,26.1882764 L54.8011683,26.2530775 C55.0992733,26.2620207 55.3336853,26.5109324 55.3247422,26.8090374 C55.315799,27.1071424 55.0668873,27.3415544 54.7687823,27.3326113 L52.6087434,27.2678101 Z" id="Shape"></path>
        </g>
    </g>
</svg>