<?xml version="1.0" encoding="UTF-8"?>
<svg width="63px" height="63px" viewBox="0 0 63 63" version="1.1" xmlns="http://www.w3.org/2000/svg" xmlns:xlink="http://www.w3.org/1999/xlink">
    <!-- Generator: Sketch 51.3 (57544) - http://www.bohemiancoding.com/sketch -->
    <title>ICON/younity_icon</title>
    <desc>Created with Sketch.</desc>
    <defs></defs>
    <g id="Symbols" stroke="none" stroke-width="1" fill="none" fill-rule="evenodd">
        <g id="ICON/younity_icon" fill="#4900AC" fill-rule="nonzero">
            <g id="Group-17-Copy" transform="translate(-1.000000, 3.000000)">
                <path d="M23.6067575,15.8967674 L23.6295137,15.8637646 C24.0779064,15.2578306 24.6675938,14.810093 25.357945,14.5011038 C26.2466908,14.1033167 27.145431,13.981656 27.8575197,14.0021725 C28.0040642,14.0094577 28.10033,14.0394216 28.185061,14.0912282 C30.4641602,15.4847255 32.1961705,15.5112373 33.4742648,14.7688481 C33.7665558,14.5990689 33.953279,14.4363768 34.0304939,14.346672 C34.1716375,14.1826975 34.3901299,14.1074099 34.6023243,14.1496319 C37.4787729,14.7219828 39.5061112,16.1600519 40.7945349,18.1906274 C41.657739,19.5510504 42.0805116,20.9769205 42.2138575,22.2228606 C42.3142281,23.16434 41.6288429,23.6941419 40.5926606,23.9427624 C40.3032292,24.0122083 39.9993794,24.0559515 39.6964824,24.0801771 C39.514845,24.0947044 39.3712961,24.0996249 39.2991694,24.0994118 C39.1798642,24.1025919 38.9558785,24.1081404 38.6410691,24.1152675 C38.1167547,24.1271377 37.5293491,24.139006 36.8927026,24.1500824 C34.7676184,24.1870545 32.6227596,24.2065402 30.6205882,24.1992296 C25.8814214,24.1819255 22.8492896,24.0288401 21.9364062,23.6492528 C20.6586034,23.1179278 20.7951784,21.6161621 21.7053171,19.468225 C21.8863858,19.0409008 22.0975506,18.5941353 22.3328527,18.1342812 C22.6111851,17.5903322 22.9087582,17.0558001 23.2063591,16.552567 C23.3853293,16.2499343 23.5252422,16.0238738 23.6067575,15.8967674 Z M24.2392588,17.163401 C23.9533457,17.6468705 23.6674048,18.1605077 23.4011242,18.6809035 C23.1782487,19.1164721 22.9792152,19.5375712 22.8102199,19.9364021 C22.1647731,21.4596635 22.0784634,22.4087162 22.3971371,22.5412243 C23.0851121,22.8272922 26.1685079,22.9829657 30.6249698,22.9992376 C32.6176835,23.0065137 34.7545125,22.9871009 36.8718282,22.9502639 C37.5063,22.9392254 38.0916208,22.9273992 38.6139087,22.9155749 C38.9270606,22.9084853 39.149448,22.9029764 39.2831824,22.8996249 C39.3412547,22.8996249 39.4535313,22.8957764 39.6008123,22.8839969 C39.8461129,22.8643778 40.0904606,22.8292007 40.3126804,22.7758815 C40.8312658,22.6514527 41.0358868,22.4932809 41.0206454,22.3503159 C40.9053895,21.2734033 40.5334379,20.0189353 39.781292,18.8335418 C38.7099862,17.1451475 37.0555524,15.9342179 34.671933,15.3913314 C34.5172066,15.5227946 34.3191499,15.6658402 34.0769913,15.8064996 C32.4457769,16.7540009 30.2907921,16.7383121 27.7002536,15.2000929 C27.1689189,15.2014798 26.493357,15.3076282 25.8481797,15.5963983 C25.3430645,15.822479 24.9226286,16.1397938 24.6057713,16.561948 C24.5299487,16.6808794 24.402155,16.887949 24.2392588,17.163401 Z" id="Stroke-1"></path>
                <path d="M31.3396418,0.0509172159 C31.4251426,0.0132520585 31.5182579,-0.00392556807 31.6115701,0.000752736084 C34.8395099,0.162588947 36.2005732,2.03644935 36.2005732,6.63677591 C36.2005732,10.5828632 34.2625212,12.2000001 31.9834309,12.2000001 C29.8723667,12.2000001 28.3812596,10.8528559 28.0362375,6.82226782 C27.8376443,4.50202284 28.4667643,2.69425396 29.6422964,1.36972178 C30.2648315,0.668279643 30.8938467,0.247300807 31.3396418,0.0509172159 Z M31.4494693,1.36774113 C31.140856,1.5742857 30.8302539,1.83899957 30.539803,2.16626552 C29.5786024,3.24929935 29.0618923,4.73406007 29.2318655,6.71992661 C29.5233879,10.1255254 30.4913136,11.0000001 31.9834309,11.0000001 C32.533986,11.0000001 33.1731896,10.8150991 33.7090263,10.3679897 C34.5169348,9.69385989 35.0005732,8.50521718 35.0005732,6.63677591 C35.0005732,2.70205496 34.1003265,1.38035186 31.7068832,1.20868681 C31.6392928,1.24638071 31.5520236,1.299105 31.4494693,1.36774113 Z" id="Stroke-3"></path>
                <path d="M45.6067528,47.8967676 L45.6294427,47.8638543 C46.0778771,47.2576275 46.6678081,46.8097497 47.3585295,46.5007388 C48.2470577,46.1032343 49.1455733,45.9816643 49.857499,46.0021722 C50.0040767,46.0094577 50.1003707,46.0394371 50.1851204,46.0912711 C52.4638174,47.4849545 54.1957219,47.5113619 55.4739628,46.7686691 C55.7663561,46.5987806 55.9531665,46.4359738 56.0304356,46.3461895 C56.1715865,46.1821768 56.3901161,46.1068735 56.6023408,46.1491164 C59.4790125,46.7217124 61.506381,48.1598397 62.7946996,50.1903804 C63.6578655,51.5508308 64.0804971,52.9765797 64.2137956,54.2226158 C64.3145843,55.1643542 63.6289637,55.6942093 62.5923275,55.9428154 C62.3028524,56.0122374 61.9989537,56.055966 61.6960076,56.0801835 C61.5143409,56.0947059 61.3707705,56.0996246 61.2986351,56.0994116 C61.179334,56.1025916 60.9553561,56.1081401 60.6405575,56.1152673 C60.1162612,56.1271375 59.5288758,56.1390058 58.892251,56.1500821 C56.7672283,56.1870545 54.6224308,56.2065402 52.6203166,56.1992293 C47.8813201,56.1819245 44.8492847,56.0288389 43.9364048,55.6492524 C42.658604,55.1179272 42.7951787,53.6161623 43.7053157,51.4682252 C43.8863842,51.040901 44.0975485,50.5941354 44.3328502,50.1342813 C44.6111822,49.5903324 44.9087547,49.0558002 45.2063551,48.5525672 C45.385325,48.2499345 45.5252376,48.0238739 45.6067528,47.8967676 Z M46.2392553,49.1634003 C45.9533427,49.6468699 45.6674023,50.160507 45.4011221,50.6809029 C45.178247,51.1164715 44.9792139,51.5375706 44.8102189,51.9364015 C44.1647732,53.4596629 44.0784637,54.4087162 44.3971364,54.5412242 C45.0851085,54.8272914 48.1683988,54.9829648 52.6246985,54.9992373 C54.6173546,55.0065136 56.754122,54.9871009 58.8713759,54.9502637 C59.5058259,54.9392252 60.0911265,54.927399 60.6133962,54.9155747 C60.9265372,54.9084851 61.1489167,54.9029762 61.2826475,54.8996246 C61.3407439,54.8996246 61.4530575,54.8957768 61.6003846,54.8839994 C61.8457614,54.864384 62.0901856,54.8292133 62.3124785,54.775903 C62.8312919,54.6514812 63.0359171,54.4933445 63.0206067,54.3502883 C62.9053616,53.2730099 62.5335384,52.0186635 61.781438,50.8332652 C60.7102303,49.1449169 59.05577,47.9339336 56.6719382,47.3908355 C56.5171711,47.5223697 56.3190557,47.6654991 56.0768219,47.8062436 C54.4454293,48.7541272 52.2904255,48.7385767 49.7002013,47.200093 C49.1689731,47.2014825 48.4935804,47.3075592 47.848574,47.5961184 C47.3432037,47.822208 46.9226346,48.139596 46.6057976,48.5618995 C46.5299789,48.6808232 46.402173,48.8879114 46.2392553,49.1634003 Z" id="Stroke-5"></path>
                <path d="M53.3398124,32.0509192 C53.4253132,32.0132532 53.5184287,31.9960748 53.6117412,32.0007525 C56.8397658,32.1625715 58.2005719,34.0361926 58.2005719,38.6364902 C58.2005719,42.58254 56.262408,44.2000001 53.9831204,44.2000001 C51.872667,44.2000001 50.3812064,42.8523053 50.0361555,38.8219168 C49.8378126,36.5019019 50.4669578,34.6942892 51.6423761,33.369837 C52.2649441,32.6683322 52.8939936,32.2473176 53.3398124,32.0509192 Z M53.4496239,33.3677599 C53.1409903,33.5743243 52.8303676,33.8390646 52.5398971,34.1663645 C51.5787741,35.2493505 51.0620334,36.7340108 51.231788,38.7196278 C51.5233311,42.1250152 52.4916553,43.0000001 53.9831204,43.0000001 C54.5338181,43.0000001 55.173169,42.8150102 55.709059,42.3677928 C56.5169544,41.6935781 57.0005719,40.5048843 57.0005719,38.6364902 C57.0005719,34.7017886 56.1005547,33.3803271 53.7070633,33.2086857 C53.6394672,33.2463834 53.5521892,33.2991143 53.4496239,33.3677599 Z" id="Stroke-7"></path>
                <path d="M2.60675266,47.8967678 L2.62950881,47.8637649 C3.07797168,47.2577349 3.66781148,46.8099564 4.35836843,46.5009658 C5.24713533,46.1032859 6.14589547,45.9816594 6.85800162,46.0021724 C7.00457964,46.0094578 7.10087369,46.0394372 7.18562331,46.0912713 C9.46440692,47.4850076 11.1963678,47.5115187 12.4746114,46.7689759 C12.766955,46.599151 12.9537291,46.4364091 13.0309778,46.3466669 C13.1721217,46.1826957 13.3906119,46.1074102 13.6028041,46.1496319 C16.4792654,46.7219863 18.5066185,48.1600806 19.7949503,50.1906421 C20.6582006,51.5512256 21.0811166,52.9780904 21.2137946,54.222616 C21.3145789,55.1643128 20.6290662,55.6941978 19.592605,55.9428115 C19.303179,56.0122354 18.9993336,56.0559651 18.6964409,56.0801831 C18.5148062,56.0947059 18.3712602,56.0996248 18.299137,56.0994117 C18.179832,56.1025918 17.9558467,56.1081403 17.6410378,56.1152674 C17.1167244,56.1271376 16.5293199,56.1390059 15.8926745,56.1500823 C13.7675943,56.1870544 11.6227393,56.2065401 9.62057166,56.1992296 C4.88141303,56.1819254 1.84928693,56.0288401 0.936404785,55.6492525 C-0.341396006,55.1179274 -0.20482129,53.6161624 0.705315707,51.4682253 C0.886384118,51.0409011 1.09754849,50.5941356 1.33285015,50.1342815 C1.61118209,49.5903326 1.90875465,49.0558004 2.20635496,48.5525673 C2.38532485,48.2499347 2.52523744,48.0238741 2.60675266,47.8967678 Z M3.23925519,49.1634005 C2.95334257,49.64687 2.66740219,50.1605072 2.40112207,50.680903 C2.17824699,51.1164717 1.9792139,51.5375707 1.81021885,51.9364016 C1.16477325,53.459663 1.07846368,54.4087164 1.3971364,54.5412244 C2.08510977,54.8272921 5.16849994,54.9829656 9.62495322,54.9992376 C11.6176633,55.0065136 13.7544883,54.9871008 15.8718001,54.9502638 C16.5062707,54.9392253 17.0915905,54.9273991 17.6138774,54.9155748 C17.9270288,54.9084852 18.1494157,54.9029763 18.2831499,54.8996248 C18.3412276,54.8996248 18.4535106,54.8957772 18.600799,54.8840006 C18.8461115,54.8643864 19.0904713,54.829218 19.3127034,54.7759117 C19.8313769,54.6514986 20.0359211,54.4933908 20.0205825,54.350071 C19.905891,53.2742596 19.5338391,52.019004 18.7816887,50.8335269 C17.7104727,49.1451653 16.0560404,47.9342232 13.6724198,47.3913331 C13.5176699,47.5228253 13.3195794,47.6659073 13.0773785,47.8066039 C11.4459898,48.7542918 9.2909753,48.7386111 6.70070368,47.2000929 C6.16931665,47.2014813 5.49370543,47.3076084 4.84848336,47.5963138 C4.34320544,47.8224011 3.9226618,48.139744 3.60576683,48.5619477 C3.52994437,48.6808791 3.40215097,48.8879486 3.23925519,49.1634005 Z" id="Stroke-9"></path>
                <path d="M10.3396514,32.050913 C10.4251492,32.0132509 10.5182605,31.9960748 10.6115687,32.0007527 C13.839502,32.1625809 15.2005732,34.0363635 15.2005732,38.6364902 C15.2005732,42.5824172 13.2622712,44.2000001 10.9834309,44.2000001 C8.87261898,44.2000001 7.38126298,42.8524121 7.03623769,38.8219782 C6.83764329,36.5018283 7.46676766,34.6941322 8.64230575,33.369656 C9.26484196,32.6682458 9.89385692,32.247287 10.3396514,32.050913 Z M10.4494584,33.3677357 C10.1408454,33.5742703 9.83024374,33.8389713 9.53979361,34.1662208 C8.57859904,35.2491966 8.06189332,36.7338743 8.23186526,38.7196321 C8.52339226,42.1251226 9.49160643,43.0000001 10.9834309,43.0000001 C11.5338171,43.0000001 12.173125,42.8149949 12.708993,42.3677937 C13.5169244,41.6935458 14.0005732,40.5048484 14.0005732,38.6364902 C14.0005732,34.7019689 13.1003322,33.3803405 10.7068777,33.2086859 C10.6392863,33.2463783 10.5520152,33.2991011 10.4494584,33.3677357 Z" id="Stroke-11"></path>
                <path d="M32.1019168,27.6 C32.1019168,27.2686292 32.370546,27 32.7019168,27 C33.0332877,27 33.3019168,27.2686292 33.3019168,27.6 C33.3019168,28.2653709 33.2897968,28.7827031 33.250701,30.0609065 C33.2115106,31.3422027 33.1981093,31.9535692 33.2002127,32.6860382 C33.209348,35.867252 33.6222066,38.1082619 34.7359025,39.982632 C35.7701383,41.7237508 37.4681381,43.0864195 40.1994162,44.6205334 C40.8109258,44.9640082 42.9177466,46.0897835 42.8866299,46.0728665 C43.1777577,46.2311423 43.2854555,46.595456 43.1271796,46.8865838 C42.9689038,47.1777116 42.6045901,47.2854094 42.3134623,47.1271335 C42.3543968,47.1493881 40.2363081,46.0175919 39.6117517,45.6667888 C36.7121428,44.0381263 34.8719183,42.5613202 33.7042302,40.5955368 C32.4579525,38.4980292 32.0099139,36.0660613 32.0002177,32.6894841 C31.9980636,31.93936 32.0116692,31.3186668 32.0512619,30.0242198 C32.0899702,28.7586875 32.1019168,28.2487552 32.1019168,27.6 Z" id="Stroke-13"></path>
                <path d="M31.8982435,27.6 C31.8982435,27.2686292 32.1668727,27 32.4982435,27 C32.8296144,27 33.0982435,27.2686292 33.0982435,27.6 C33.0982435,28.2487552 33.1101901,28.7586875 33.1488984,30.0242198 C33.1884911,31.3186668 33.2020968,31.93936 33.1999427,32.6894841 C33.1902464,36.0660613 32.7422078,38.4980292 31.4959674,40.5954742 C30.328242,42.5613202 28.4880176,44.0381263 25.5884086,45.6667888 C24.9638522,46.0175919 22.8457636,47.1493881 22.886698,47.1271335 C22.5955702,47.2854094 22.2312566,47.1777116 22.0729807,46.8865838 C21.9147049,46.595456 22.0224026,46.2311423 22.3135305,46.0728665 C22.2824138,46.0897835 24.3892345,44.9640082 25.0007442,44.6205334 C27.7320223,43.0864195 29.430022,41.7237508 30.4642951,39.9825694 C31.5779538,38.1082619 31.9908124,35.867252 31.9999476,32.6860382 C32.002051,31.9535692 31.9886498,31.3422027 31.9494593,30.0609065 C31.9103635,28.7827031 31.8982435,28.2653709 31.8982435,27.6 Z" id="Stroke-15"></path>
            </g>
        </g>
    </g>
</svg>